<svg xmlns="http://www.w3.org/2000/svg" fill="#000" viewBox="206.87 208.2 955.68 947.8">
<circle cx="684.71" cy="682.1" r="450" fill="#fff" />
<path d="M642 209.467C502.8 222.533 381.6 289.333 300.267 397.6C271.067 436.533 247.333 482 230.8 530.267C220.533 560.4 211.067 606.133 207.867 641.733C205.867 663.467 207.067 720.533 209.867 740.667C225.2 849.6 273.467 945.2 350.933 1020.8C374.667 1043.87 393.333 1058.93 420 1076.67C478.8 1115.6 536.933 1138.4 607.067 1149.87C635.467 1154.53 653.733 1156 686 1156C798.533 1156 904.533 1117.33 990.8 1045.07C1088.93 962.933 1148 850.933 1160.8 723.467C1164.53 687.067 1162.13 633.467 1155.33 597.333C1139.6 512.933 1104.53 438.667 1050.67 375.333C1037.87 360.4 1008.53 331.6 992.267 318.133C916.267 255.2 822.667 217.333 723.467 209.333C703.6 207.733 659.467 207.867 642 209.467ZM885.067 363.2C899.867 371.867 912 379.6 912 380.533C912 384 902.267 423.467 896.533 443.2C886.533 477.733 868.667 525.333 859.333 542.133C856.8 546.533 852.133 553.867 848.8 558.4C845.333 562.933 842.667 567.2 842.667 567.867C842.667 568.533 857.467 586.4 875.467 607.6L908.267 646L888.8 649.333C877.867 651.2 869.333 653.2 869.333 654C869.333 655.467 901.733 707.733 910.4 720.267C912.8 723.733 914.667 727.067 914.667 727.6C914.667 728.267 906.533 730 896.667 731.333C886.8 732.667 878.667 734.267 878.667 734.933C878.667 736.4 903.067 785.2 917.2 811.867C923.733 824.267 927.467 832.8 926.667 833.333C926 833.733 919.067 834.933 911.333 835.867C903.6 836.8 897.067 838 896.8 838.4C896.533 838.933 903.333 860.8 912 887.067L927.733 934.667L916.8 939.867C910.933 942.667 889.467 952.8 869.333 962.267C849.2 971.867 802.933 993.867 766.667 1011.33C730.4 1028.8 697.067 1044.67 692.533 1046.8L684.4 1050.67L652.533 1035.2C624.267 1021.47 595.733 1007.73 543.333 982.667C534.533 978.4 510.8 967.067 490.667 957.333C470.533 947.733 451.733 938.8 449.067 937.733C446.267 936.667 444 935.067 444 934.267C444 933.6 451.2 911.6 460 885.6C468.8 859.6 476 838.133 476 838C476 837.867 468.8 836.933 460 836C451.2 835.067 444.133 833.867 444.267 833.467C445.067 831.867 476.533 771.067 486.267 752.267C492.4 740.533 495.467 733.333 494.4 733.333C490.4 733.2 460 728.4 459.333 727.733C458.4 726.933 459.467 725.2 484.533 684.267C494.533 668 502.667 654.133 502.667 653.467C502.667 652.533 472.8 646.667 467.6 646.667C464.133 646.667 464.8 644.4 470.4 638.267C473.2 635.2 487.733 618.267 502.667 600.667C517.6 583.067 530.267 568.4 530.8 568C531.333 567.6 528.533 562.533 524.533 556.667C514.933 542.8 512.8 538.533 501.733 510.667C486.667 473.067 472.933 429.467 464.667 392.933L461.733 379.867L464.533 378.133C466 377.2 471.867 373.733 477.333 370.4C502.933 354.8 537.6 334.533 538 334.933C538.133 335.2 553.2 356.4 571.467 382.133C589.733 407.867 606.133 430.933 608.133 433.333L611.467 437.733L633.733 420.267L656.133 402.8L662.4 406.533C665.867 408.533 676.267 414.8 685.6 420.4L702.667 430.533L710.8 414.533C719.067 398.667 719.067 398.533 721.867 401.067C730.667 408.933 762.667 434.667 763.6 434.667C764.133 434.667 766.267 432.4 768.133 429.6C792.267 394.533 807.067 373.067 819.6 355.067L834.8 333.467L846.4 340.533C852.8 344.4 870.133 354.533 885.067 363.2Z" fill="black"/>
<path d="M522.933 394.4L511.867 400.667L512.667 406.667C516.933 437.333 527.2 468.133 543.067 498.267L545.333 502.667L559.067 495.867C566.533 492.133 572.8 488.8 573.067 488.667C573.333 488.4 570.267 483.467 566.267 477.733C552.267 457.733 543.2 434.4 539.333 408.667C536.4 389.467 536.133 388 534.933 388C534.4 388 529.067 390.933 522.933 394.4Z" fill="black"/>
<path d="M837.333 391.733C837.333 398.133 833.2 420 829.733 432C825.333 447.2 816.667 465.067 807.6 477.733L800 488.133L814.133 494.8C826.133 500.533 828.533 501.333 830 499.867C833.067 496.8 844.8 469.067 850.533 451.733C853.467 442.667 857.067 428.4 858.667 420C860.133 411.6 861.6 403.6 862 402.267C862.267 400.4 859.733 398.533 850.533 394C844 390.667 838.4 388 838 388C837.6 388 837.333 389.733 837.333 391.733Z" fill="black"/>
<path d="M539.333 569.467C533.333 586.667 535.867 607.6 545.733 620.933C548.4 624.533 557.867 634.4 567.067 642.933L583.6 658.533L619.467 622.533C639.2 602.8 655.467 586.133 655.6 585.6C655.867 585.067 631.867 581.2 602.267 576.8C572.8 572.533 546.667 568.667 544.4 568.267C541.467 567.867 539.867 568.267 539.333 569.467ZM578.133 590C580.933 594.4 579.6 599.733 575.467 600.8C570.4 602 567.6 600.933 565.467 597.2C563.733 594 563.733 593.333 565.733 590.133C568.8 585.467 575.067 585.333 578.133 590Z" fill="black"/>
<path d="M778.667 576.133C749.733 580.4 723.867 584.4 721.067 584.933L716.267 586L752.133 622.4L788.133 658.933L805.6 642.4C830.667 618.933 836.8 608.267 836.4 588C836.267 579.067 834 567.867 832.267 568.133C831.733 568.267 807.6 571.733 778.667 576.133ZM806.133 590C810.667 596.933 803.333 605.2 796.533 600.667C792.133 597.867 791.733 591.333 795.733 588.267C799.2 585.6 803.733 586.4 806.133 590Z" fill="black"/>
<path d="M658 646.267C648.8 648.667 650 652.933 664.4 667.867L676.667 680.667V702V723.333L660.133 723.733L643.6 724.133L637.2 717.467C633.6 713.733 628.8 707.067 626.533 702.4C620.4 690.133 616.4 688 610.933 693.733C608.533 696.267 608 698.4 608 704.8C608.133 719.067 616.667 732.4 630.933 740.133L639.333 744.667H686H732.667L739.733 740.933C756.267 732.267 766.267 714.667 763.467 699.467C762.933 696.4 761.333 693.867 759.2 692.533C754.133 689.067 750.4 691.733 744.667 702.533C741.867 707.733 737.2 714.667 734.133 718L728.533 724H713.067H697.733L696.8 717.867C696.4 714.4 696 704.8 696 696.533V681.467L708 668.133C714.667 660.667 720 653.867 720 652.933C720 652 719.2 650 718.133 648.533C716.4 646.133 714.267 646 688.4 645.733C673.2 645.6 659.467 645.867 658 646.267Z" fill="black"/>
</svg>